<mxfile host="app.diagrams.net" agent="Mozilla/5.0 (Windows NT 10.0; Win64; x64) AppleWebKit/537.36 (KHTML, like Gecko) Chrome/138.0.0.0 Safari/537.36 Edg/138.0.0.0" version="27.2.0">
  <diagram name="Página-1" id="dqkjyzaPQBjTdeKdSsB0">
    <mxGraphModel grid="1" page="1" gridSize="10" guides="1" tooltips="1" connect="1" arrows="1" fold="1" pageScale="1" pageWidth="827" pageHeight="1169" math="0" shadow="0">
      <root>
        <mxCell id="0" />
        <mxCell id="1" parent="0" />
        <mxCell id="e5U5epBoNAjMOXG4ewW2-1" value="&lt;font style=&quot;font-size: 14px;&quot;&gt;- ID: INT&lt;/font&gt;&lt;div&gt;&lt;font style=&quot;font-size: 14px;&quot;&gt;- Nome: String&lt;/font&gt;&lt;/div&gt;&lt;div&gt;&lt;font style=&quot;font-size: 14px;&quot;&gt;-Cpf: String&lt;/font&gt;&lt;/div&gt;&lt;div&gt;&lt;font style=&quot;font-size: 14px;&quot;&gt;-Cargo: String&lt;/font&gt;&lt;/div&gt;&lt;div&gt;&lt;font style=&quot;font-size: 14px;&quot;&gt;-Usuario: String&lt;/font&gt;&lt;/div&gt;&lt;div&gt;&lt;font style=&quot;font-size: 14px;&quot;&gt;-Senha: String&lt;/font&gt;&lt;/div&gt;" style="rounded=0;whiteSpace=wrap;html=1;align=left;" vertex="1" parent="1">
          <mxGeometry x="40" y="120" width="200" height="130" as="geometry" />
        </mxCell>
        <mxCell id="e5U5epBoNAjMOXG4ewW2-2" value="&lt;h2&gt;FUNCIONARIO&lt;/h2&gt;" style="rounded=0;whiteSpace=wrap;html=1;" vertex="1" parent="1">
          <mxGeometry x="40" y="60" width="200" height="60" as="geometry" />
        </mxCell>
        <mxCell id="1bdzN57KN7rgAbuTYCEt-1" value="&lt;font style=&quot;font-size: 19px;&quot;&gt;+getters/setters&lt;/font&gt;" style="rounded=0;whiteSpace=wrap;html=1;" vertex="1" parent="1">
          <mxGeometry x="40" y="250" width="200" height="60" as="geometry" />
        </mxCell>
        <mxCell id="1bdzN57KN7rgAbuTYCEt-2" value="&lt;h2&gt;USUARIO&lt;/h2&gt;" style="rounded=0;whiteSpace=wrap;html=1;" vertex="1" parent="1">
          <mxGeometry x="330" y="60" width="190" height="60" as="geometry" />
        </mxCell>
        <mxCell id="1bdzN57KN7rgAbuTYCEt-3" value="&lt;font style=&quot;font-size: 16px;&quot;&gt;-Id: int&lt;/font&gt;&lt;div&gt;&lt;font style=&quot;font-size: 16px;&quot;&gt;-Nome: String&lt;/font&gt;&lt;/div&gt;&lt;div&gt;&lt;font style=&quot;font-size: 16px;&quot;&gt;-Cpf: String&lt;/font&gt;&lt;/div&gt;&lt;div&gt;&lt;font style=&quot;font-size: 16px;&quot;&gt;-Emprestimos Ativos: int&lt;/font&gt;&lt;/div&gt;" style="rounded=0;whiteSpace=wrap;html=1;align=left;" vertex="1" parent="1">
          <mxGeometry x="330" y="120" width="190" height="130" as="geometry" />
        </mxCell>
        <mxCell id="1bdzN57KN7rgAbuTYCEt-4" value="&lt;h2&gt;LIVRO&lt;/h2&gt;" style="rounded=0;whiteSpace=wrap;html=1;" vertex="1" parent="1">
          <mxGeometry x="610" y="60" width="190" height="60" as="geometry" />
        </mxCell>
        <mxCell id="1bdzN57KN7rgAbuTYCEt-5" value="-Id: Int&lt;div&gt;-Titulo: String&lt;/div&gt;&lt;div&gt;-Autor: String&lt;/div&gt;&lt;div&gt;-Ano Publicação: int&lt;/div&gt;&lt;div&gt;-Isbn: String&lt;/div&gt;&lt;div&gt;- Disponivel: Boolean&lt;/div&gt;" style="rounded=0;whiteSpace=wrap;html=1;align=left;" vertex="1" parent="1">
          <mxGeometry x="610" y="120" width="190" height="130" as="geometry" />
        </mxCell>
        <mxCell id="1bdzN57KN7rgAbuTYCEt-6" value="&lt;font style=&quot;font-size: 19px;&quot;&gt;+getters/setters&lt;/font&gt;" style="rounded=0;whiteSpace=wrap;html=1;" vertex="1" parent="1">
          <mxGeometry x="610" y="250" width="190" height="60" as="geometry" />
        </mxCell>
        <mxCell id="1bdzN57KN7rgAbuTYCEt-7" value="&lt;font style=&quot;font-size: 14px;&quot;&gt;- Id: Int&lt;/font&gt;&lt;div&gt;&lt;font style=&quot;font-size: 14px;&quot;&gt;- Usuario: Int&lt;/font&gt;&lt;/div&gt;&lt;div&gt;&lt;font style=&quot;font-size: 14px;&quot;&gt;- Livro: int&lt;/font&gt;&lt;/div&gt;&lt;div&gt;&lt;font style=&quot;font-size: 14px;&quot;&gt;- Funcionario: int&lt;/font&gt;&lt;/div&gt;&lt;div&gt;&lt;font style=&quot;font-size: 14px;&quot;&gt;- Data Emprestimo: Date&amp;nbsp;&lt;/font&gt;&lt;/div&gt;" style="rounded=0;whiteSpace=wrap;html=1;align=left;" vertex="1" parent="1">
          <mxGeometry x="50" y="520" width="200" height="90" as="geometry" />
        </mxCell>
        <mxCell id="1bdzN57KN7rgAbuTYCEt-8" value="&lt;h2&gt;EMPRESTIMO&lt;/h2&gt;" style="rounded=0;whiteSpace=wrap;html=1;" vertex="1" parent="1">
          <mxGeometry x="50" y="460" width="200" height="60" as="geometry" />
        </mxCell>
        <mxCell id="1bdzN57KN7rgAbuTYCEt-9" value="&lt;font style=&quot;font-size: 19px;&quot;&gt;+getters/setters&lt;/font&gt;" style="rounded=0;whiteSpace=wrap;html=1;" vertex="1" parent="1">
          <mxGeometry x="50" y="610" width="200" height="60" as="geometry" />
        </mxCell>
        <mxCell id="1bdzN57KN7rgAbuTYCEt-11" value="" style="endArrow=none;html=1;rounded=0;exitX=1;exitY=0.5;exitDx=0;exitDy=0;entryX=0;entryY=0.5;entryDx=0;entryDy=0;" edge="1" parent="1" source="e5U5epBoNAjMOXG4ewW2-1" target="1bdzN57KN7rgAbuTYCEt-3">
          <mxGeometry width="50" height="50" relative="1" as="geometry">
            <mxPoint x="390" y="410" as="sourcePoint" />
            <mxPoint x="440" y="360" as="targetPoint" />
          </mxGeometry>
        </mxCell>
        <mxCell id="1bdzN57KN7rgAbuTYCEt-12" value="" style="endArrow=none;html=1;rounded=0;entryX=0;entryY=0.5;entryDx=0;entryDy=0;exitX=1;exitY=0.5;exitDx=0;exitDy=0;" edge="1" parent="1" source="1bdzN57KN7rgAbuTYCEt-3" target="1bdzN57KN7rgAbuTYCEt-5">
          <mxGeometry width="50" height="50" relative="1" as="geometry">
            <mxPoint x="390" y="410" as="sourcePoint" />
            <mxPoint x="440" y="360" as="targetPoint" />
          </mxGeometry>
        </mxCell>
        <mxCell id="1bdzN57KN7rgAbuTYCEt-13" value="" style="endArrow=none;html=1;rounded=0;entryX=0.45;entryY=0.933;entryDx=0;entryDy=0;entryPerimeter=0;exitX=0.4;exitY=0;exitDx=0;exitDy=0;exitPerimeter=0;" edge="1" parent="1" source="1bdzN57KN7rgAbuTYCEt-8" target="1bdzN57KN7rgAbuTYCEt-1">
          <mxGeometry width="50" height="50" relative="1" as="geometry">
            <mxPoint x="390" y="410" as="sourcePoint" />
            <mxPoint x="440" y="360" as="targetPoint" />
          </mxGeometry>
        </mxCell>
      </root>
    </mxGraphModel>
  </diagram>
</mxfile>
